<?xml version="1.0" encoding="utf-8"?>
<!-- Generator: Adobe Illustrator 25.4.1, SVG Export Plug-In . SVG Version: 6.00 Build 0)  -->
<svg version="1.1" id="Layer_1" xmlns="http://www.w3.org/2000/svg" xmlns:xlink="http://www.w3.org/1999/xlink" x="0px" y="0px"
	 viewBox="0 0 50 50" style="enable-background:new 0 0 50 50;" xml:space="preserve">
<style type="text/css">
	.st0{fill:#C6AA80;}
</style>
<path class="st0" d="M48.37,37.38c-0.84-2.74-1.63-5.89-2.79-8.89c-0.68-1.79-1.79-3.47-3-5.05c-2.58-3.26-5.89-4.42-9.58-4
	c-2.89,0.32-5.42,1.47-7.84,2.84c-2.58,1.42-5.21,2.68-8.26,3.21c-3,0.53-5.95,0.32-8.79-1.63c-1.95-1.32-3.42-3-4.42-5.05
	c-0.89-1.95-1.26-4.1-2.05-6.05c0.11-0.05-0.11,0.05,0,0c0.37,0.47,0.74,0.95,1.16,1.37c1.58,1.58,3.05,3.26,4.79,4.63
	c2.53,1.95,5.37,2.53,8,1.47c2.53-1,4.79-2.42,7.21-3.63c2.42-1.21,4.74-2.63,7.31-3.42c4-1.21,8.05-0.53,11.79,2.63
	c2.05,1.74,3.32,3.95,4.21,6.37C48.16,27.33,48.48,32.54,48.37,37.38z"/>
</svg>
